<svg width="40" height="41" viewBox="0 0 40 41" fill="none" xmlns="http://www.w3.org/2000/svg">
<rect y="0.725098" width="40" height="40" rx="20" fill="#EBE1F8"/>
<path fill-rule="evenodd" clip-rule="evenodd" d="M11.5 13.4751C11.5 13.4088 11.5263 13.3452 11.5732 13.2983C11.6201 13.2514 11.6837 13.2251 11.75 13.2251H22.25C22.3163 13.2251 22.3799 13.2514 22.4268 13.2983C22.4737 13.3452 22.5 13.4088 22.5 13.4751V20.9751C22.5 21.0414 22.4737 21.105 22.4268 21.1519C22.3799 21.1988 22.3163 21.2251 22.25 21.2251H16.75C16.5511 21.2253 16.3605 21.3044 16.22 21.4451L13.5 24.1651V21.9751C13.5 21.7762 13.421 21.5854 13.2803 21.4448C13.1397 21.3041 12.9489 21.2251 12.75 21.2251H11.75C11.6837 21.2251 11.6201 21.1988 11.5732 21.1519C11.5263 21.105 11.5 21.0414 11.5 20.9751V13.4751ZM11.75 11.7251C11.2859 11.7251 10.8407 11.9095 10.5126 12.2377C10.1844 12.5658 10 13.011 10 13.4751V20.9751C10 21.9411 10.784 22.7251 11.75 22.7251H12V24.2681C12.0001 24.5562 12.0856 24.8378 12.2457 25.0773C12.4058 25.3168 12.6333 25.5035 12.8995 25.6137C13.1657 25.7239 13.4585 25.7528 13.7411 25.6966C14.0237 25.6404 14.2832 25.5018 14.487 25.2981L17.061 22.7251H22.25C22.7141 22.7251 23.1592 22.5407 23.4874 22.2125C23.8156 21.8843 24 21.4392 24 20.9751V13.4751C24 13.011 23.8156 12.5658 23.4874 12.2377C23.1592 11.9095 22.7141 11.7251 22.25 11.7251H11.75ZM28.5 17.4751C28.5 17.4088 28.4737 17.3452 28.4268 17.2983C28.3799 17.2514 28.3163 17.2251 28.25 17.2251H25.75C25.5511 17.2251 25.3603 17.1461 25.2197 17.0054C25.079 16.8648 25 16.674 25 16.4751C25 16.2762 25.079 16.0854 25.2197 15.9448C25.3603 15.8041 25.5511 15.7251 25.75 15.7251H28.25C29.216 15.7251 30 16.5091 30 17.4751V24.9751C30 25.4392 29.8156 25.8843 29.4874 26.2125C29.1592 26.5407 28.7141 26.7251 28.25 26.7251H28V28.2681C27.9999 28.5562 27.9144 28.8378 27.7543 29.0773C27.5942 29.3168 27.3667 29.5035 27.1005 29.6137C26.8343 29.7239 26.5415 29.7528 26.2589 29.6966C25.9763 29.6404 25.7168 29.5018 25.513 29.2981L22.939 26.7251H18.75C18.2859 26.7251 17.8407 26.5407 17.5126 26.2125C17.1844 25.8843 17 25.4392 17 24.9751V24.5111C17 24.3122 17.079 24.1214 17.2197 23.9808C17.3603 23.8401 17.5511 23.7611 17.75 23.7611C17.9489 23.7611 18.1397 23.8401 18.2803 23.9808C18.421 24.1214 18.5 24.3122 18.5 24.5111V24.9751C18.5 25.1131 18.612 25.2251 18.75 25.2251H23.25C23.4488 25.2253 23.6395 25.3044 23.78 25.4451L26.5 28.1651V25.9751C26.5 25.7762 26.579 25.5854 26.7197 25.4448C26.8603 25.3041 27.0511 25.2251 27.25 25.2251H28.25C28.3163 25.2251 28.3799 25.1988 28.4268 25.1519C28.4737 25.105 28.5 25.0414 28.5 24.9751V17.4751Z" fill="#9C6ADE"/>
</svg>
