<svg width="40" height="41" viewBox="0 0 40 41" fill="none" xmlns="http://www.w3.org/2000/svg">
<rect y="0.725098" width="40" height="40" rx="20" fill="#CEE7FE"/>
<mask id="path-3-inside-1_2516_1084" fill="white">
<path fill-rule="evenodd" clip-rule="evenodd" d="M14 11.7251C12.3431 11.7251 11 13.0682 11 14.7251V16.7251C11 18.382 12.3431 19.7251 14 19.7251H16C17.6569 19.7251 19 18.382 19 16.7251V14.7251C19 13.0682 17.6569 11.7251 16 11.7251H14ZM14 21.7251C12.3431 21.7251 11 23.0682 11 24.7251V26.7251C11 28.382 12.3431 29.7251 14 29.7251H16C17.6569 29.7251 19 28.382 19 26.7251V24.7251C19 23.0682 17.6569 21.7251 16 21.7251H14ZM21 14.7251C21 13.0682 22.3431 11.7251 24 11.7251H26C27.6569 11.7251 29 13.0682 29 14.7251V16.7251C29 18.382 27.6569 19.7251 26 19.7251H24C22.3431 19.7251 21 18.382 21 16.7251V14.7251ZM24 21.7251C22.3431 21.7251 21 23.0682 21 24.7251V26.7251C21 28.382 22.3431 29.7251 24 29.7251H26C27.6569 29.7251 29 28.382 29 26.7251V24.7251C29 23.0682 27.6569 21.7251 26 21.7251H24Z"/>
</mask>
<path d="M12.5 14.7251C12.5 13.8967 13.1716 13.2251 14 13.2251V10.2251C11.5147 10.2251 9.5 12.2398 9.5 14.7251H12.5ZM12.5 16.7251V14.7251H9.5V16.7251H12.5ZM14 18.2251C13.1716 18.2251 12.5 17.5535 12.5 16.7251H9.5C9.5 19.2104 11.5147 21.2251 14 21.2251V18.2251ZM16 18.2251H14V21.2251H16V18.2251ZM17.5 16.7251C17.5 17.5535 16.8284 18.2251 16 18.2251V21.2251C18.4853 21.2251 20.5 19.2104 20.5 16.7251H17.5ZM17.5 14.7251V16.7251H20.5V14.7251H17.5ZM16 13.2251C16.8284 13.2251 17.5 13.8967 17.5 14.7251H20.5C20.5 12.2398 18.4853 10.2251 16 10.2251V13.2251ZM14 13.2251H16V10.2251H14V13.2251ZM12.5 24.7251C12.5 23.8967 13.1716 23.2251 14 23.2251V20.2251C11.5147 20.2251 9.5 22.2398 9.5 24.7251H12.5ZM12.5 26.7251V24.7251H9.5V26.7251H12.5ZM14 28.2251C13.1716 28.2251 12.5 27.5535 12.5 26.7251H9.5C9.5 29.2104 11.5147 31.2251 14 31.2251V28.2251ZM16 28.2251H14V31.2251H16V28.2251ZM17.5 26.7251C17.5 27.5535 16.8284 28.2251 16 28.2251V31.2251C18.4853 31.2251 20.5 29.2104 20.5 26.7251H17.5ZM17.5 24.7251V26.7251H20.5V24.7251H17.5ZM16 23.2251C16.8284 23.2251 17.5 23.8967 17.5 24.7251H20.5C20.5 22.2398 18.4853 20.2251 16 20.2251V23.2251ZM14 23.2251H16V20.2251H14V23.2251ZM24 10.2251C21.5147 10.2251 19.5 12.2398 19.5 14.7251H22.5C22.5 13.8967 23.1716 13.2251 24 13.2251V10.2251ZM26 10.2251H24V13.2251H26V10.2251ZM30.5 14.7251C30.5 12.2398 28.4853 10.2251 26 10.2251V13.2251C26.8284 13.2251 27.5 13.8967 27.5 14.7251H30.5ZM30.5 16.7251V14.7251H27.5V16.7251H30.5ZM26 21.2251C28.4853 21.2251 30.5 19.2104 30.5 16.7251H27.5C27.5 17.5535 26.8284 18.2251 26 18.2251V21.2251ZM24 21.2251H26V18.2251H24V21.2251ZM19.5 16.7251C19.5 19.2104 21.5147 21.2251 24 21.2251V18.2251C23.1716 18.2251 22.5 17.5535 22.5 16.7251H19.5ZM19.5 14.7251V16.7251H22.5V14.7251H19.5ZM22.5 24.7251C22.5 23.8967 23.1716 23.2251 24 23.2251V20.2251C21.5147 20.2251 19.5 22.2398 19.5 24.7251H22.5ZM22.5 26.7251V24.7251H19.5V26.7251H22.5ZM24 28.2251C23.1716 28.2251 22.5 27.5535 22.5 26.7251H19.5C19.5 29.2104 21.5147 31.2251 24 31.2251V28.2251ZM26 28.2251H24V31.2251H26V28.2251ZM27.5 26.7251C27.5 27.5535 26.8284 28.2251 26 28.2251V31.2251C28.4853 31.2251 30.5 29.2104 30.5 26.7251H27.5ZM27.5 24.7251V26.7251H30.5V24.7251H27.5ZM26 23.2251C26.8284 23.2251 27.5 23.8967 27.5 24.7251H30.5C30.5 22.2398 28.4853 20.2251 26 20.2251V23.2251ZM24 23.2251H26V20.2251H24V23.2251Z" fill="#0889FA" mask="url(#path-3-inside-1_2516_1084)"/>
</svg>
