<svg width="40" height="41" viewBox="0 0 40 41" fill="none" xmlns="http://www.w3.org/2000/svg">
<rect y="0.725098" width="40" height="40" rx="20" fill="#DAF3F2"/>
<path fill-rule="evenodd" clip-rule="evenodd" d="M20.0725 12.2808C20.0252 12.2664 19.9748 12.2664 19.9275 12.2808L12.6775 14.4777C12.5708 14.5101 12.5 14.6067 12.5 14.7155V19.7251C12.5 22.1282 13.2227 24.0454 14.4836 25.5721C15.754 27.1104 17.6075 28.2957 19.9297 29.1529C19.9746 29.1695 20.0253 29.1695 20.0703 29.1529C22.3925 28.2957 24.246 27.1104 25.5164 25.5721C26.7773 24.0454 27.5 22.1282 27.5 19.7251V14.7155C27.5 14.6067 27.4292 14.5101 27.3225 14.4777L20.0725 12.2808ZM19.4925 10.8452C19.8234 10.7449 20.1766 10.7449 20.5075 10.8452L27.7575 13.0422C28.4941 13.2654 29 13.9431 29 14.7155V19.7251C29 22.4557 28.169 24.7159 26.673 26.5273C25.1865 28.3272 23.08 29.6408 20.5897 30.5601C20.2095 30.7004 19.7904 30.7004 19.4102 30.5601C16.92 29.6408 14.8135 28.3272 13.327 26.5273C11.831 24.7159 11 22.4557 11 19.7251V14.7155C11 13.9432 11.5059 13.2654 12.2425 13.0422L19.4925 10.8452ZM20.75 20.5797C21.483 20.283 22 19.5644 22 18.7251C22 17.6205 21.1046 16.7251 20 16.7251C18.8954 16.7251 18 17.6205 18 18.7251C18 19.5644 18.517 20.283 19.25 20.5797V23.9751C19.25 24.3893 19.5858 24.7251 20 24.7251C20.4142 24.7251 20.75 24.3893 20.75 23.9751V20.5797Z" fill="#47C1BF"/>
</svg>
